<svg fill="#ffffff" xmlns="http://www.w3.org/2000/svg"  viewBox="0 0 100 100" width="550px" height="550px"><path d="M 50 15 C 30.701 15 15 30.701 15 50 C 15 69.299 30.701 85 50 85 C 69.299 85 85 69.299 85 50 C 85 30.701 69.299 15 50 15 z M 50 17 C 68.196 17 83 31.804 83 50 C 83 68.196 68.196 83 50 83 C 31.804 83 17 68.196 17 50 C 17 31.804 31.804 17 50 17 z M 50 19 C 32.906 19 19 32.907 19 50 C 19 67.094 32.906 81 50 81 C 67.094 81 81 67.094 81 50 C 81 41.28 77.295938 32.913875 70.835938 27.046875 C 70.631938 26.861875 70.317859 26.875078 70.130859 27.080078 C 69.944859 27.284078 69.959063 27.601109 70.164062 27.787109 C 76.415062 33.465109 80 41.561 80 50 C 80 66.542 66.542 80 50 80 C 33.458 80 20 66.542 20 50 C 20 33.458 33.458 20 50 20 C 53.549 20 57.023125 20.613219 60.328125 21.824219 C 60.586125 21.920219 60.875703 21.787344 60.970703 21.527344 C 61.065703 21.268344 60.931875 20.981719 60.671875 20.886719 C 57.256875 19.634719 53.666 19 50 19 z M 63.529297 22.144531 C 63.335234 22.133375 63.143031 22.235875 63.050781 22.421875 C 62.928781 22.669875 63.029344 22.968797 63.277344 23.091797 C 63.940344 23.419797 64.603094 23.779203 65.246094 24.158203 C 65.325094 24.205203 65.413 24.226562 65.5 24.226562 C 65.671 24.226562 65.836687 24.139422 65.929688 23.982422 C 66.069688 23.744422 65.991906 23.437875 65.753906 23.296875 C 65.090906 22.904875 64.406703 22.534312 63.720703 22.195312 C 63.659453 22.165312 63.593984 22.14825 63.529297 22.144531 z M 67.414062 24.525391 C 67.288187 24.547391 67.170797 24.616969 67.091797 24.730469 C 66.932797 24.956469 66.986891 25.268734 67.212891 25.427734 C 67.544891 25.659734 67.873312 25.899484 68.195312 26.146484 C 68.286313 26.215484 68.394 26.248047 68.5 26.248047 C 68.65 26.248047 68.799438 26.181734 68.898438 26.052734 C 69.065438 25.832734 69.024687 25.518563 68.804688 25.351562 C 68.470687 25.095563 68.131109 24.848422 67.787109 24.607422 C 67.673609 24.528922 67.539938 24.503391 67.414062 24.525391 z M 50 28 C 37.869 28 28 37.869 28 50 C 28 62.131 37.869 72 50 72 C 62.131 72 72 62.131 72 50 C 72 37.869 62.131 28 50 28 z M 50 29 C 61.579 29 71 38.421 71 50 C 71 61.579 61.579 71 50 71 C 38.421 71 29 61.579 29 50 C 29 38.421 38.421 29 50 29 z M 50 31 C 39.523 31 31 39.523 31 50 C 31 60.477 39.523 69 50 69 C 60.477 69 69 60.477 69 50 C 69 39.523 60.477 31 50 31 z M 50 32 C 59.925 32 68 40.075 68 50 C 68 59.925 59.925 68 50 68 C 40.075 68 32 59.925 32 50 C 32 40.075 40.075 32 50 32 z M 43.494141 39 C 43.408391 39.00125 43.322594 39.023359 43.246094 39.068359 C 43.094094 39.158359 43 39.323 43 39.5 L 43 60.5 C 43 60.681 43.097859 60.8485 43.255859 60.9375 C 43.330859 60.9795 43.416 61 43.5 61 C 43.591 61 43.681719 60.975734 43.761719 60.927734 L 49.261719 57.566406 C 49.496719 57.421406 49.571734 57.113906 49.427734 56.878906 C 49.282734 56.642906 48.971281 56.567891 48.738281 56.712891 L 44 59.609375 L 44 40.349609 L 60.507812 49.519531 L 56.738281 51.822266 C 56.503281 51.967266 56.428266 52.276719 56.572266 52.511719 C 56.717266 52.746719 57.026719 52.820734 57.261719 52.677734 L 61.761719 49.927734 C 61.912719 49.834734 62.004 49.666281 62 49.488281 C 61.996 49.310281 61.897188 49.1495 61.742188 49.0625 L 43.742188 39.0625 C 43.664687 39.0195 43.579891 38.99875 43.494141 39 z M 53.923828 53.587891 C 53.859781 53.597422 53.796281 53.62075 53.738281 53.65625 L 51.738281 54.878906 C 51.503281 55.023906 51.428266 55.331406 51.572266 55.566406 C 51.667266 55.720406 51.832 55.806641 52 55.806641 C 52.09 55.806641 52.180719 55.781422 52.261719 55.732422 L 54.261719 54.509766 C 54.496719 54.364766 54.571734 54.057266 54.427734 53.822266 C 54.318984 53.645266 54.115969 53.559297 53.923828 53.587891 z"/></svg>